# Blender 3.3.1
# www.blender.org
mtllib brad.mtl
o Cube
o Cube.001
v 0.000000 0.000000 -0.127771
v -0.090348 0.000000 -0.090348
v -0.127771 0.000000 0.000000
v -0.090348 -0.000000 0.090348
v 0.000000 -0.000000 0.127771
v 0.090348 -0.000000 0.090348
v 0.127771 0.000000 0.000000
v 0.090348 0.000000 -0.090348
v 0.000000 0.196570 -0.127771
v -0.090348 0.196570 -0.090348
v -0.127771 0.196570 0.000000
v -0.090348 0.196570 0.090348
v 0.000000 0.196570 0.127771
v 0.090348 0.196570 0.090348
v 0.127771 0.196570 0.000000
v 0.090348 0.196570 -0.090348
v 0.000000 0.196570 -0.393141
v 0.076698 0.196570 -0.385587
v 0.150448 0.196570 -0.363215
v 0.218417 0.196570 -0.326885
v 0.277992 0.196570 -0.277992
v 0.326885 0.196570 -0.218417
v 0.363215 0.196570 -0.150448
v 0.385587 0.196570 -0.076698
v 0.393141 0.196570 0.000000
v 0.385587 0.196570 0.076698
v 0.363215 0.196570 0.150448
v 0.326885 0.196570 0.218417
v 0.277992 0.196570 0.277992
v 0.218417 0.196570 0.326885
v 0.150448 0.196570 0.363215
v 0.076698 0.196570 0.385587
v 0.000000 0.196570 0.393141
v -0.076698 0.196570 0.385587
v -0.150448 0.196570 0.363215
v -0.218417 0.196570 0.326885
v -0.277992 0.196570 0.277992
v -0.326885 0.196570 0.218417
v -0.363215 0.196570 0.150448
v -0.385587 0.196570 0.076698
v -0.393141 0.196570 0.000000
v -0.385587 0.196570 -0.076698
v -0.363215 0.196570 -0.150448
v -0.326885 0.196570 -0.218417
v -0.277992 0.196570 -0.277992
v -0.218417 0.196570 -0.326885
v -0.150448 0.196570 -0.363215
v -0.076698 0.196570 -0.385587
v 0.000000 0.589711 0.000000
v 0.000000 0.452112 -0.294856
v 0.057523 0.452112 -0.289190
v 0.112836 0.452112 -0.272411
v 0.163813 0.452112 -0.245163
v 0.208494 0.452112 -0.208494
v 0.245163 0.452112 -0.163813
v 0.272411 0.452112 -0.112836
v 0.289190 0.452112 -0.057523
v 0.294856 0.452112 0.000000
v 0.289190 0.452112 0.057523
v 0.272411 0.452112 0.112836
v 0.245163 0.452112 0.163813
v 0.208494 0.452112 0.208494
v 0.163813 0.452112 0.245163
v 0.112836 0.452112 0.272411
v 0.057523 0.452112 0.289190
v 0.000000 0.452112 0.294856
v -0.057523 0.452112 0.289190
v -0.112836 0.452112 0.272411
v -0.163813 0.452112 0.245163
v -0.208494 0.452112 0.208494
v -0.245163 0.452112 0.163813
v -0.272411 0.452112 0.112836
v -0.289190 0.452112 0.057523
v -0.294856 0.452112 0.000000
v -0.289190 0.452112 -0.057523
v -0.272411 0.452112 -0.112836
v -0.245163 0.452112 -0.163813
v -0.208494 0.452112 -0.208494
v -0.163813 0.452112 -0.245163
v -0.112836 0.452112 -0.272411
v -0.057523 0.452112 -0.289190
v 0.000000 0.845253 0.000000
v 0.000000 0.687997 -0.196570
v 0.038349 0.687997 -0.192793
v 0.075224 0.687997 -0.181607
v 0.109209 0.687997 -0.163442
v 0.138996 0.687997 -0.138996
v 0.163442 0.687997 -0.109209
v 0.181607 0.687997 -0.075224
v 0.192793 0.687997 -0.038349
v 0.196570 0.687997 0.000000
v 0.192793 0.687997 0.038349
v 0.181607 0.687997 0.075224
v 0.163442 0.687997 0.109209
v 0.138996 0.687997 0.138996
v 0.109209 0.687997 0.163442
v 0.075224 0.687997 0.181607
v 0.038349 0.687997 0.192793
v 0.000000 0.687997 0.196570
v -0.038349 0.687997 0.192793
v -0.075224 0.687997 0.181607
v -0.109209 0.687997 0.163442
v -0.138996 0.687997 0.138996
v -0.163442 0.687997 0.109209
v -0.181607 0.687997 0.075224
v -0.192793 0.687997 0.038349
v -0.196570 0.687997 0.000000
v -0.192793 0.687997 -0.038349
v -0.181607 0.687997 -0.075224
v -0.163442 0.687997 -0.109209
v -0.138996 0.687997 -0.138996
v -0.109209 0.687997 -0.163442
v -0.075224 0.687997 -0.181607
v -0.038349 0.687997 -0.192793
v 0.000000 1.081138 0.000000
vn 0.9239 -0.0000 0.3827
vn -0.9239 -0.0000 0.3827
vn -0.3827 -0.0000 -0.9239
vn 0.9239 -0.0000 -0.3827
vn 0.3827 -0.0000 0.9239
vn -0.3827 -0.0000 0.9239
vn -0.9239 -0.0000 -0.3827
vn 0.3827 -0.0000 -0.9239
vn -0.0000 -1.0000 -0.0000
vn -0.0000 1.0000 -0.0000
vn 0.0695 0.7054 -0.7054
vn 0.2058 0.7054 -0.6783
vn 0.3341 0.7054 -0.6251
vn 0.4497 0.7054 -0.5479
vn 0.5479 0.7054 -0.4497
vn 0.6251 0.7054 -0.3341
vn 0.6783 0.7054 -0.2058
vn 0.7054 0.7054 -0.0695
vn 0.7054 0.7054 0.0695
vn 0.6783 0.7054 0.2058
vn 0.6251 0.7054 0.3341
vn 0.5479 0.7054 0.4497
vn 0.4497 0.7054 0.5479
vn 0.3341 0.7054 0.6251
vn 0.2058 0.7054 0.6783
vn 0.0695 0.7054 0.7054
vn -0.0695 0.7054 0.7054
vn -0.2058 0.7054 0.6783
vn -0.3341 0.7054 0.6251
vn -0.4497 0.7054 0.5479
vn -0.5479 0.7054 0.4497
vn -0.6251 0.7054 0.3341
vn -0.6783 0.7054 0.2058
vn -0.7054 0.7054 0.0695
vn -0.7054 0.7054 -0.0695
vn -0.6783 0.7054 -0.2058
vn -0.6251 0.7054 -0.3341
vn -0.5479 0.7054 -0.4497
vn -0.4497 0.7054 -0.5479
vn -0.3341 0.7054 -0.6251
vn -0.2058 0.7054 -0.6783
vn -0.0695 0.7054 -0.7054
vn 0.0786 0.5981 -0.7975
vn 0.2326 0.5981 -0.7669
vn 0.3778 0.5981 -0.7068
vn 0.5084 0.5981 -0.6195
vn 0.6195 0.5981 -0.5084
vn 0.7068 0.5981 -0.3778
vn 0.7669 0.5981 -0.2326
vn 0.7975 0.5981 -0.0786
vn 0.7975 0.5981 0.0786
vn 0.7669 0.5981 0.2326
vn 0.7068 0.5981 0.3778
vn 0.6195 0.5981 0.5084
vn 0.5084 0.5981 0.6195
vn 0.3778 0.5981 0.7068
vn 0.2326 0.5981 0.7669
vn 0.0786 0.5981 0.7975
vn -0.0786 0.5981 0.7975
vn -0.2326 0.5981 0.7669
vn -0.3778 0.5981 0.7068
vn -0.5084 0.5981 0.6195
vn -0.6195 0.5981 0.5084
vn -0.7068 0.5981 0.3778
vn -0.7669 0.5981 0.2326
vn -0.7975 0.5981 0.0786
vn -0.7975 0.5981 -0.0786
vn -0.7669 0.5981 -0.2326
vn -0.7068 0.5981 -0.3778
vn -0.6195 0.5981 -0.5084
vn -0.5084 0.5981 -0.6195
vn -0.3778 0.5981 -0.7068
vn -0.2326 0.5981 -0.7669
vn -0.0786 0.5981 -0.7975
vn 0.0878 0.4455 -0.8910
vn 0.2599 0.4455 -0.8567
vn 0.4220 0.4455 -0.7896
vn 0.5680 0.4455 -0.6921
vn 0.6921 0.4455 -0.5680
vn 0.7896 0.4455 -0.4220
vn 0.8567 0.4455 -0.2599
vn 0.8910 0.4455 -0.0878
vn 0.8910 0.4455 0.0878
vn 0.8567 0.4455 0.2599
vn 0.7896 0.4455 0.4220
vn 0.6921 0.4455 0.5680
vn 0.5680 0.4455 0.6921
vn 0.4220 0.4455 0.7896
vn 0.2599 0.4455 0.8567
vn 0.0878 0.4455 0.8910
vn -0.0878 0.4455 0.8910
vn -0.2599 0.4455 0.8567
vn -0.4220 0.4455 0.7896
vn -0.5680 0.4455 0.6921
vn -0.6921 0.4455 0.5680
vn -0.7896 0.4455 0.4220
vn -0.8567 0.4455 0.2599
vn -0.8910 0.4455 0.0878
vn -0.8910 0.4455 -0.0878
vn -0.8567 0.4455 -0.2599
vn -0.7896 0.4455 -0.4220
vn -0.6921 0.4455 -0.5680
vn -0.5680 0.4455 -0.6921
vn -0.4220 0.4455 -0.7896
vn -0.2599 0.4455 -0.8567
vn -0.0878 0.4455 -0.8910
vt 0.317445 0.491731
vt 0.492888 0.823561
vt 0.000000 0.987670
vt 0.283984 0.479401
vt 0.526348 0.790100
vt 0.047321 0.987670
vt 0.573669 0.790100
vt 0.080782 1.000000
vt 0.283983 0.467070
vt 0.607131 0.823561
vt 0.331304 0.467071
vt 0.607131 0.870882
vt 0.364766 0.479401
vt 0.161564 0.911574
vt 0.573670 0.904343
vt 0.114243 0.911574
vt 0.526349 0.904343
vt 0.080782 0.899244
vt 0.364766 0.491731
vt 0.492888 0.870882
vt 0.317445 0.580156
vt 0.459427 0.790100
vt 0.000000 0.899244
vt 0.283984 0.567826
vt 0.412106 0.790100
vt 0.047321 0.899244
vt 0.378645 0.823561
vt 0.080782 0.911574
vt 0.283983 0.378645
vt 0.378645 0.870882
vt 0.331304 0.378645
vt 0.412106 0.904343
vt 0.364766 0.390975
vt 0.161564 1.000000
vt 0.459427 0.904343
vt 0.114243 1.000000
vt 0.492888 0.870882
vt 0.080782 0.987670
vt 0.364766 0.580157
vt 0.492888 0.823561
vt 0.042267 0.310010
vt 0.549121 0.018459
vt 0.516402 0.033257
vt 0.021548 0.279002
vt 0.483807 0.051055
vt 0.007276 0.244548
vt 0.452587 0.071170
vt 0.000000 0.207971
vt 0.423944 0.092828
vt 0.000000 0.170678
vt 0.398976 0.115196
vt 0.007275 0.134101
vt 0.378645 0.137416
vt 0.841239 0.000000
vt 0.021546 0.099646
vt 0.812003 0.007229
vt 0.042265 0.068638
vt 0.780418 0.018459
vt 0.068635 0.042267
vt 0.747699 0.033257
vt 0.099643 0.021548
vt 0.715104 0.051055
vt 0.134097 0.007276
vt 0.683884 0.071170
vt 0.170674 0.000000
vt 0.655241 0.092828
vt 0.207967 0.000000
vt 0.630273 0.115196
vt 0.244544 0.007275
vt 0.609942 0.137416
vt 0.609942 0.263367
vt 0.278999 0.021546
vt 0.580705 0.270596
vt 0.310007 0.042265
vt 0.549121 0.281825
vt 0.336378 0.068635
vt 0.516402 0.296624
vt 0.357097 0.099643
vt 0.483807 0.314422
vt 0.371369 0.134097
vt 0.452587 0.334537
vt 0.378645 0.170674
vt 0.423944 0.356194
vt 0.378645 0.207967
vt 0.398976 0.378563
vt 0.371370 0.244544
vt 0.378645 0.400782
vt 0.609942 0.526733
vt 0.357099 0.278999
vt 0.580705 0.533963
vt 0.336380 0.310007
vt 0.549121 0.545192
vt 0.310010 0.336378
vt 0.516402 0.559990
vt 0.279002 0.357097
vt 0.483807 0.577789
vt 0.244548 0.371369
vt 0.452587 0.597903
vt 0.207971 0.378645
vt 0.423944 0.619561
vt 0.170678 0.378645
vt 0.398976 0.641930
vt 0.134101 0.371370
vt 0.378645 0.664149
vt 0.099646 0.357099
vt 0.609942 0.000000
vt 0.068638 0.336380
vt 0.580705 0.007229
vt 0.841239 0.263367
vt 0.609942 0.526733
vt 0.609942 0.790100
vt 0.609942 0.263367
vt 0.031700 0.611152
vt 0.745730 0.272794
vt 0.720244 0.281500
vt 0.016160 0.587896
vt 0.694635 0.292455
vt 0.005457 0.562055
vt 0.669887 0.305237
vt 0.000000 0.534622
vt 0.646953 0.319356
vt 0.000000 0.506652
vt 0.626712 0.334268
vt 0.005456 0.479220
vt 0.609942 0.349402
vt 0.182517 0.662628
vt 0.016160 0.453379
vt 0.160172 0.665933
vt 0.031699 0.430122
vt 0.135788 0.672056
vt 0.051477 0.410344
vt 0.110302 0.680762
vt 0.074733 0.394805
vt 0.084693 0.691717
vt 0.100574 0.384102
vt 0.059945 0.704499
vt 0.128006 0.378645
vt 0.037010 0.718618
vt 0.155976 0.378645
vt 0.016769 0.733530
vt 0.183409 0.384101
vt 0.000000 0.748664
vt 0.792459 0.499982
vt 0.209250 0.394805
vt 0.770114 0.503287
vt 0.232506 0.410344
vt 0.745730 0.509410
vt 0.252284 0.430122
vt 0.720244 0.518116
vt 0.267823 0.453378
vt 0.694635 0.529070
vt 0.278527 0.479219
vt 0.669887 0.541853
vt 0.283983 0.506651
vt 0.646953 0.555972
vt 0.283983 0.534621
vt 0.626712 0.570884
vt 0.278527 0.562054
vt 0.609942 0.586017
vt 0.365034 0.662628
vt 0.267823 0.587895
vt 0.342689 0.665933
vt 0.252284 0.611151
vt 0.318305 0.672056
vt 0.232507 0.630929
vt 0.292819 0.680762
vt 0.209251 0.646468
vt 0.267210 0.691717
vt 0.183410 0.657172
vt 0.242462 0.704499
vt 0.155977 0.662628
vt 0.219527 0.718618
vt 0.128007 0.662628
vt 0.199287 0.733530
vt 0.100575 0.657172
vt 0.182517 0.748664
vt 0.074734 0.646468
vt 0.792459 0.263367
vt 0.051477 0.630929
vt 0.770114 0.266671
vt 0.182517 0.899244
vt 0.792459 0.736598
vt 0.365034 0.899244
vt 0.792459 0.499982
vt 0.609942 0.821936
vt 0.888389 0.502539
vt 0.870831 0.506293
vt 0.613580 0.803648
vt 0.853014 0.511526
vt 0.620716 0.786420
vt 0.835624 0.518037
vt 0.631075 0.770916
vt 0.819328 0.525576
vt 0.644260 0.757731
vt 0.804753 0.533852
vt 0.659764 0.747372
vt 0.792459 0.542548
vt 0.920066 0.263367
vt 0.676992 0.740236
vt 0.905013 0.263793
vt 0.695280 0.736598
vt 0.888389 0.265924
vt 0.713927 0.736598
vt 0.870831 0.269678
vt 0.732215 0.740236
vt 0.853014 0.274911
vt 0.749442 0.747371
vt 0.835624 0.281422
vt 0.764946 0.757731
vt 0.819328 0.288960
vt 0.778131 0.770916
vt 0.804753 0.297236
vt 0.788491 0.786420
vt 0.792459 0.305932
vt 0.968846 0.000000
vt 0.795627 0.803647
vt 0.953794 0.000426
vt 0.799264 0.821936
vt 0.937169 0.002557
vt 0.799264 0.840582
vt 0.919611 0.006311
vt 0.795627 0.858871
vt 0.901794 0.011544
vt 0.788491 0.876098
vt 0.884404 0.018055
vt 0.778131 0.891602
vt 0.868109 0.025593
vt 0.764946 0.904787
vt 0.853534 0.033869
vt 0.749443 0.915147
vt 0.841240 0.042566
vt 0.926871 0.736598
vt 0.732215 0.922282
vt 0.911819 0.737024
vt 0.713927 0.925920
vt 0.895194 0.739155
vt 0.695280 0.925920
vt 0.877636 0.742909
vt 0.676992 0.922283
vt 0.859819 0.748142
vt 0.659765 0.915147
vt 0.842429 0.754653
vt 0.644260 0.904787
vt 0.826133 0.762191
vt 0.631075 0.891602
vt 0.811559 0.770467
vt 0.620716 0.876098
vt 0.799264 0.779163
vt 0.613580 0.858871
vt 0.920066 0.499982
vt 0.609942 0.840583
vt 0.905013 0.500408
vt 0.920066 0.475925
vt 0.968846 0.212558
vt 0.926871 0.949156
vt 0.920066 0.712541
s 0
usemtl Material.001
f 3/6/1 2/3/1 10/23/1 11/26/1
f 8/18/2 7/16/2 15/36/2 16/38/2
f 6/13/3 5/11/3 13/31/3 14/33/3
f 4/8/4 3/6/4 11/26/4 12/28/4
f 2/4/5 1/1/5 9/21/5 10/24/5
f 1/1/6 8/19/6 16/39/6 9/21/6
f 7/16/7 6/14/7 14/34/7 15/36/7
f 5/11/8 4/9/8 12/29/8 13/31/8
f 10/25/9 9/22/9 16/40/9 15/37/9 14/35/9 13/32/9 12/30/9 11/27/9
f 2/5/10 3/7/10 4/10/10 5/12/10 6/15/10 7/17/10 8/20/10 1/2/10
f 17/42/11 49/112/11 18/43/11
f 18/43/12 49/112/12 19/45/12
f 19/45/13 49/112/13 20/47/13
f 20/47/14 49/112/14 21/49/14
f 21/49/15 49/112/15 22/51/15
f 22/51/16 49/112/16 23/53/16
f 23/54/17 49/109/17 24/56/17
f 24/56/18 49/109/18 25/58/18
f 25/58/19 49/109/19 26/60/19
f 26/60/20 49/109/20 27/62/20
f 27/62/21 49/109/21 28/64/21
f 28/64/22 49/109/22 29/66/22
f 29/66/23 49/109/23 30/68/23
f 30/68/24 49/109/24 31/70/24
f 31/71/25 49/110/25 32/73/25
f 32/73/26 49/110/26 33/75/26
f 33/75/27 49/110/27 34/77/27
f 34/77/28 49/110/28 35/79/28
f 35/79/29 49/110/29 36/81/29
f 36/81/30 49/110/30 37/83/30
f 37/83/31 49/110/31 38/85/31
f 38/85/32 49/110/32 39/87/32
f 39/88/33 49/111/33 40/90/33
f 40/90/34 49/111/34 41/92/34
f 41/92/35 49/111/35 42/94/35
f 42/94/36 49/111/36 43/96/36
f 43/96/37 49/111/37 44/98/37
f 44/98/38 49/111/38 45/100/38
f 45/100/39 49/111/39 46/102/39
f 46/102/40 49/111/40 47/104/40
f 17/41/9 18/44/9 19/46/9 20/48/9 21/50/9 22/52/9 23/55/9 24/57/9 25/59/9 26/61/9 27/63/9 28/65/9 29/67/9 30/69/9 31/72/9 32/74/9 33/76/9 34/78/9 35/80/9 36/82/9 37/84/9 38/86/9 39/89/9 40/91/9 41/93/9 42/95/9 43/97/9 44/99/9 45/101/9 46/103/9 47/105/9 48/107/9
f 47/106/41 49/112/41 48/108/41
f 48/108/42 49/112/42 17/42/42
f 50/114/43 82/184/43 51/115/43
f 51/115/44 82/184/44 52/117/44
f 52/117/45 82/184/45 53/119/45
f 53/119/46 82/184/46 54/121/46
f 54/121/47 82/184/47 55/123/47
f 55/123/48 82/184/48 56/125/48
f 56/126/49 82/181/49 57/128/49
f 57/128/50 82/181/50 58/130/50
f 58/130/51 82/181/51 59/132/51
f 59/132/52 82/181/52 60/134/52
f 60/134/53 82/181/53 61/136/53
f 61/136/54 82/181/54 62/138/54
f 62/138/55 82/181/55 63/140/55
f 63/140/56 82/181/56 64/142/56
f 64/143/57 82/182/57 65/145/57
f 65/145/58 82/182/58 66/147/58
f 66/147/59 82/182/59 67/149/59
f 67/149/60 82/182/60 68/151/60
f 68/151/61 82/182/61 69/153/61
f 69/153/62 82/182/62 70/155/62
f 70/155/63 82/182/63 71/157/63
f 71/157/64 82/182/64 72/159/64
f 72/160/65 82/183/65 73/162/65
f 73/162/66 82/183/66 74/164/66
f 74/164/67 82/183/67 75/166/67
f 75/166/68 82/183/68 76/168/68
f 76/168/69 82/183/69 77/170/69
f 77/170/70 82/183/70 78/172/70
f 78/172/71 82/183/71 79/174/71
f 79/174/72 82/183/72 80/176/72
f 50/113/9 51/116/9 52/118/9 53/120/9 54/122/9 55/124/9 56/127/9 57/129/9 58/131/9 59/133/9 60/135/9 61/137/9 62/139/9 63/141/9 64/144/9 65/146/9 66/148/9 67/150/9 68/152/9 69/154/9 70/156/9 71/158/9 72/161/9 73/163/9 74/165/9 75/167/9 76/169/9 77/171/9 78/173/9 79/175/9 80/177/9 81/179/9
f 80/178/73 82/184/73 81/180/73
f 81/180/74 82/184/74 50/114/74
f 83/186/75 115/256/75 84/187/75
f 84/187/76 115/256/76 85/189/76
f 85/189/77 115/256/77 86/191/77
f 86/191/78 115/256/78 87/193/78
f 87/193/79 115/256/79 88/195/79
f 88/195/80 115/256/80 89/197/80
f 89/198/81 115/253/81 90/200/81
f 90/200/82 115/253/82 91/202/82
f 91/202/83 115/253/83 92/204/83
f 92/204/84 115/253/84 93/206/84
f 93/206/85 115/253/85 94/208/85
f 94/208/86 115/253/86 95/210/86
f 95/210/87 115/253/87 96/212/87
f 96/212/88 115/253/88 97/214/88
f 97/215/89 115/254/89 98/217/89
f 98/217/90 115/254/90 99/219/90
f 99/219/91 115/254/91 100/221/91
f 100/221/92 115/254/92 101/223/92
f 101/223/93 115/254/93 102/225/93
f 102/225/94 115/254/94 103/227/94
f 103/227/95 115/254/95 104/229/95
f 104/229/96 115/254/96 105/231/96
f 105/232/97 115/255/97 106/234/97
f 106/234/98 115/255/98 107/236/98
f 107/236/99 115/255/99 108/238/99
f 108/238/100 115/255/100 109/240/100
f 109/240/101 115/255/101 110/242/101
f 110/242/102 115/255/102 111/244/102
f 111/244/103 115/255/103 112/246/103
f 112/246/104 115/255/104 113/248/104
f 83/185/9 84/188/9 85/190/9 86/192/9 87/194/9 88/196/9 89/199/9 90/201/9 91/203/9 92/205/9 93/207/9 94/209/9 95/211/9 96/213/9 97/216/9 98/218/9 99/220/9 100/222/9 101/224/9 102/226/9 103/228/9 104/230/9 105/233/9 106/235/9 107/237/9 108/239/9 109/241/9 110/243/9 111/245/9 112/247/9 113/249/9 114/251/9
f 113/250/105 115/256/105 114/252/105
f 114/252/106 115/256/106 83/186/106
