# Blender 3.3.1
# www.blender.org
mtllib start_sign.mtl
o Cube
v -1.000000 0.018877 0.000000
v 1.000000 0.018877 0.000000
v -1.000000 0.018877 -0.050000
v 1.000000 0.018877 -0.050000
v -1.000000 0.739882 0.000000
v 1.000000 0.739882 0.000000
v -1.000000 0.739882 -0.050000
v 1.000000 0.739882 -0.050000
v -0.950000 0.018877 -0.050000
v -0.950000 0.018877 0.000000
v -0.950000 0.739882 -0.050000
v -0.950000 0.739882 0.000000
v 0.950000 0.018877 0.000000
v 0.950000 0.018877 -0.050000
v 0.950000 0.739882 0.000000
v 0.950000 0.739882 -0.050000
v -0.950000 0.018877 -0.025000
v -0.950000 0.739882 -0.025000
v -0.950000 0.379380 0.000000
v -0.950000 0.379380 -0.050000
v -0.950000 0.379380 -0.025000
v -1.000000 1.089882 -0.050000
v -1.000000 1.089882 0.000000
v -0.950000 1.089882 -0.050000
v -0.950000 1.089882 -0.025000
v 1.000000 1.089882 0.000000
v 1.000000 1.089882 -0.050000
v -0.950000 1.089882 0.000000
v 0.950000 1.089882 0.000000
v 0.950000 1.089882 -0.050000
v 0.950000 0.739882 -0.050000
v 0.950000 0.739882 -0.025000
v 0.950000 0.739882 0.000000
v 0.950000 1.089882 -0.050000
v 0.950000 1.089882 -0.025000
v 0.950000 1.089882 0.000000
vn 1.0000 -0.0000 -0.0000
vn -0.0000 -0.0000 -1.0000
vn -0.0000 -0.0000 1.0000
vn -0.0000 -1.0000 -0.0000
vn -1.0000 -0.0000 -0.0000
vn -0.0000 1.0000 -0.0000
vt 0.457302 0.000000
vt 0.042698 0.832618
vt 0.978651 0.000000
vt 0.064048 0.853967
vt 0.064048 0.832618
vt 0.914603 0.832618
vt 0.957301 0.457302
vt 0.085397 0.853967
vt 0.021349 0.832618
vt 0.149444 0.000000
vt 0.935952 0.811268
vt 0.978651 0.307857
vt 0.000000 0.832618
vt 0.606746 0.832618
vt 0.957301 0.811268
vt 0.957301 0.765159
vt 1.000000 0.457302
vt 0.064048 0.853967
vt 0.914603 0.811268
vt 0.978651 0.457302
vt 0.457302 0.021349
vt 0.042698 0.853967
vt 1.000000 0.765159
vt 0.606746 0.811268
vt 0.935952 0.811268
vt 0.978651 0.765159
vt 0.149444 0.021349
vt 0.957301 0.811268
vt 1.000000 0.000000
vt 0.957302 0.000000
vt 0.064048 0.832618
vt 0.978651 0.457302
vt 0.978651 0.000000
vt 0.085397 0.832618
vt 1.000000 0.307857
vt 0.957301 0.307857
vt 0.978651 0.765159
vt 0.978651 0.307857
vt 0.989325 0.457302
vt 0.053373 0.853967
vt 0.989325 0.765159
vt 0.946627 0.811268
vt 0.303373 0.021349
vt 0.978651 0.611230
vt 1.000000 0.611230
vt 0.760674 0.811268
vt 0.989325 0.611230
vt 0.935952 0.832618
vt 0.000000 0.982062
vt 0.457302 0.832618
vt 0.914603 0.832618
vt 0.021349 0.982062
vt 0.000000 0.000000
vt 0.457302 0.811268
vt 0.935952 0.811268
vt 0.925278 0.811268
vt 0.935952 0.960713
vt 0.085397 0.832618
vt 0.978651 0.457302
vt 0.957301 0.960713
vt 0.106746 0.832618
vt 0.957301 0.914603
vt 0.000000 0.021349
vt 0.914603 0.811268
vt 0.085397 0.853967
vt 1.000000 0.457302
vt 0.957301 0.457302
vt 0.106746 0.853967
vt 0.978651 0.914603
vt 0.978651 0.457302
vt 0.042698 0.832618
vt 0.606746 0.000000
vt 0.935952 0.000000
vt 0.032024 0.832618
vt 0.946627 0.000000
vt 0.149444 0.832618
vt 0.021349 0.832618
vt 0.957301 0.000000
vt 0.042698 0.982062
vt 0.457302 0.000000
vt 0.935952 0.000000
vt 0.032024 0.982062
vt 0.925278 0.000000
vt 0.000000 0.832618
vt 0.021349 0.982062
vt 0.914603 0.000000
s 0
usemtl Material
f 9/17/1 20/45/1 21/47/1 19/44/1 10/20/1 17/39/1
f 4/7/2 14/32/2 16/37/2 8/16/2
f 1/1/3 10/21/3 19/43/3 12/27/3 5/10/3
f 20/45/1 11/23/1 18/41/1 12/26/1 19/44/1 21/47/1
f 3/5/4 9/18/4 17/40/4 10/22/4 1/2/4
f 7/14/2 11/24/2 20/46/2 9/19/2 3/6/2
f 13/29/5 15/35/5 16/38/5 14/33/5
f 8/15/1 27/60/1 26/57/1 6/11/1
f 6/12/3 15/36/3 13/30/3 2/3/3
f 2/4/4 13/31/4 14/34/4 4/8/4
f 23/51/6 28/64/6 25/56/6 24/55/6 22/48/6
f 27/61/6 30/68/6 29/65/6 26/58/6
f 16/37/2 30/69/2 27/62/2 8/16/2
f 5/9/5 23/52/5 22/49/5 7/13/5
f 15/35/5 29/66/5 30/70/5 16/38/5
f 7/14/2 22/50/2 24/54/2 11/24/2
f 6/12/3 26/59/3 29/67/3 15/36/3
f 12/27/3 28/63/3 23/53/3 5/10/3
f 12/27/3 33/76/3 36/84/3 28/63/3
f 32/74/1 31/71/1 34/79/1 35/82/1 36/85/1 33/77/1
f 24/54/2 34/80/2 31/72/2 11/24/2
f 18/42/4 32/75/4 33/78/4 12/28/4
f 28/64/6 36/86/6 35/83/6 25/56/6
f 25/56/6 35/83/6 34/81/6 24/55/6
f 11/25/4 31/73/4 32/75/4 18/42/4
